<?xml version='1.0' encoding='UTF-8'?>
<svg width="49mm" height="49mm" version="1.1" viewBox="0 0 49 49" xmlns="http://www.w3.org/2000/svg"><path d="M4,4H5V5H4zM5,4H6V5H5zM6,4H7V5H6zM7,4H8V5H7zM8,4H9V5H8zM9,4H10V5H9zM10,4H11V5H10zM13,4H14V5H13zM14,4H15V5H14zM15,4H16V5H15zM16,4H17V5H16zM18,4H19V5H18zM22,4H23V5H22zM23,4H24V5H23zM28,4H29V5H28zM29,4H30V5H29zM30,4H31V5H30zM34,4H35V5H34zM35,4H36V5H35zM36,4H37V5H36zM38,4H39V5H38zM39,4H40V5H39zM40,4H41V5H40zM41,4H42V5H41zM42,4H43V5H42zM43,4H44V5H43zM44,4H45V5H44zM4,5H5V6H4zM10,5H11V6H10zM14,5H15V6H14zM16,5H17V6H16zM17,5H18V6H17zM18,5H19V6H18zM19,5H20V6H19zM27,5H28V6H27zM29,5H30V6H29zM33,5H34V6H33zM38,5H39V6H38zM44,5H45V6H44zM4,6H5V7H4zM6,6H7V7H6zM7,6H8V7H7zM8,6H9V7H8zM10,6H11V7H10zM13,6H14V7H13zM14,6H15V7H14zM16,6H17V7H16zM17,6H18V7H17zM19,6H20V7H19zM27,6H28V7H27zM28,6H29V7H28zM31,6H32V7H31zM32,6H33V7H32zM34,6H35V7H34zM35,6H36V7H35zM38,6H39V7H38zM40,6H41V7H40zM41,6H42V7H41zM42,6H43V7H42zM44,6H45V7H44zM4,7H5V8H4zM6,7H7V8H6zM7,7H8V8H7zM8,7H9V8H8zM10,7H11V8H10zM13,7H14V8H13zM14,7H15V8H14zM15,7H16V8H15zM17,7H18V8H17zM18,7H19V8H18zM19,7H20V8H19zM20,7H21V8H20zM24,7H25V8H24zM27,7H28V8H27zM30,7H31V8H30zM34,7H35V8H34zM38,7H39V8H38zM40,7H41V8H40zM41,7H42V8H41zM42,7H43V8H42zM44,7H45V8H44zM4,8H5V9H4zM6,8H7V9H6zM7,8H8V9H7zM8,8H9V9H8zM10,8H11V9H10zM12,8H13V9H12zM13,8H14V9H13zM14,8H15V9H14zM15,8H16V9H15zM16,8H17V9H16zM17,8H18V9H17zM19,8H20V9H19zM20,8H21V9H20zM23,8H24V9H23zM27,8H28V9H27zM29,8H30V9H29zM30,8H31V9H30zM31,8H32V9H31zM32,8H33V9H32zM33,8H34V9H33zM34,8H35V9H34zM38,8H39V9H38zM40,8H41V9H40zM41,8H42V9H41zM42,8H43V9H42zM44,8H45V9H44zM4,9H5V10H4zM10,9H11V10H10zM15,9H16V10H15zM17,9H18V10H17zM19,9H20V10H19zM23,9H24V10H23zM28,9H29V10H28zM30,9H31V10H30zM32,9H33V10H32zM33,9H34V10H33zM35,9H36V10H35zM36,9H37V10H36zM38,9H39V10H38zM44,9H45V10H44zM4,10H5V11H4zM5,10H6V11H5zM6,10H7V11H6zM7,10H8V11H7zM8,10H9V11H8zM9,10H10V11H9zM10,10H11V11H10zM12,10H13V11H12zM14,10H15V11H14zM16,10H17V11H16zM18,10H19V11H18zM20,10H21V11H20zM22,10H23V11H22zM24,10H25V11H24zM26,10H27V11H26zM28,10H29V11H28zM30,10H31V11H30zM32,10H33V11H32zM34,10H35V11H34zM36,10H37V11H36zM38,10H39V11H38zM39,10H40V11H39zM40,10H41V11H40zM41,10H42V11H41zM42,10H43V11H42zM43,10H44V11H43zM44,10H45V11H44zM12,11H13V12H12zM13,11H14V12H13zM16,11H17V12H16zM17,11H18V12H17zM18,11H19V12H18zM19,11H20V12H19zM21,11H22V12H21zM22,11H23V12H22zM24,11H25V12H24zM25,11H26V12H25zM26,11H27V12H26zM28,11H29V12H28zM29,11H30V12H29zM30,11H31V12H30zM31,11H32V12H31zM33,11H34V12H33zM34,11H35V12H34zM36,11H37V12H36zM6,12H7V13H6zM7,12H8V13H7zM10,12H11V13H10zM11,12H12V13H11zM12,12H13V13H12zM16,12H17V13H16zM18,12H19V13H18zM19,12H20V13H19zM20,12H21V13H20zM22,12H23V13H22zM24,12H25V13H24zM25,12H26V13H25zM27,12H28V13H27zM29,12H30V13H29zM30,12H31V13H30zM31,12H32V13H31zM32,12H33V13H32zM33,12H34V13H33zM34,12H35V13H34zM36,12H37V13H36zM37,12H38V13H37zM38,12H39V13H38zM40,12H41V13H40zM4,13H5V14H4zM8,13H9V14H8zM11,13H12V14H11zM12,13H13V14H12zM14,13H15V14H14zM17,13H18V14H17zM18,13H19V14H18zM19,13H20V14H19zM21,13H22V14H21zM23,13H24V14H23zM24,13H25V14H24zM25,13H26V14H25zM26,13H27V14H26zM28,13H29V14H28zM32,13H33V14H32zM33,13H34V14H33zM34,13H35V14H34zM35,13H36V14H35zM36,13H37V14H36zM37,13H38V14H37zM38,13H39V14H38zM39,13H40V14H39zM40,13H41V14H40zM42,13H43V14H42zM43,13H44V14H43zM6,14H7V15H6zM8,14H9V15H8zM10,14H11V15H10zM11,14H12V15H11zM12,14H13V15H12zM13,14H14V15H13zM17,14H18V15H17zM18,14H19V15H18zM19,14H20V15H19zM20,14H21V15H20zM23,14H24V15H23zM26,14H27V15H26zM29,14H30V15H29zM32,14H33V15H32zM40,14H41V15H40zM42,14H43V15H42zM5,15H6V16H5zM11,15H12V16H11zM14,15H15V16H14zM15,15H16V16H15zM16,15H17V16H16zM17,15H18V16H17zM18,15H19V16H18zM19,15H20V16H19zM20,15H21V16H20zM21,15H22V16H21zM23,15H24V16H23zM24,15H25V16H24zM25,15H26V16H25zM26,15H27V16H26zM27,15H28V16H27zM32,15H33V16H32zM34,15H35V16H34zM36,15H37V16H36zM37,15H38V16H37zM38,15H39V16H38zM40,15H41V16H40zM43,15H44V16H43zM5,16H6V17H5zM7,16H8V17H7zM8,16H9V17H8zM9,16H10V17H9zM10,16H11V17H10zM11,16H12V17H11zM15,16H16V17H15zM18,16H19V17H18zM19,16H20V17H19zM20,16H21V17H20zM21,16H22V17H21zM23,16H24V17H23zM24,16H25V17H24zM25,16H26V17H25zM28,16H29V17H28zM30,16H31V17H30zM31,16H32V17H31zM32,16H33V17H32zM35,16H36V17H35zM37,16H38V17H37zM39,16H40V17H39zM41,16H42V17H41zM42,16H43V17H42zM44,16H45V17H44zM4,17H5V18H4zM7,17H8V18H7zM14,17H15V18H14zM15,17H16V18H15zM17,17H18V18H17zM19,17H20V18H19zM20,17H21V18H20zM22,17H23V18H22zM24,17H25V18H24zM25,17H26V18H25zM26,17H27V18H26zM27,17H28V18H27zM28,17H29V18H28zM30,17H31V18H30zM37,17H38V18H37zM41,17H42V18H41zM8,18H9V19H8zM10,18H11V19H10zM12,18H13V19H12zM13,18H14V19H13zM14,18H15V19H14zM20,18H21V19H20zM21,18H22V19H21zM22,18H23V19H22zM25,18H26V19H25zM33,18H34V19H33zM38,18H39V19H38zM39,18H40V19H39zM40,18H41V19H40zM41,18H42V19H41zM42,18H43V19H42zM43,18H44V19H43zM44,18H45V19H44zM6,19H7V20H6zM7,19H8V20H7zM8,19H9V20H8zM14,19H15V20H14zM16,19H17V20H16zM17,19H18V20H17zM18,19H19V20H18zM24,19H25V20H24zM26,19H27V20H26zM29,19H30V20H29zM30,19H31V20H30zM31,19H32V20H31zM35,19H36V20H35zM36,19H37V20H36zM38,19H39V20H38zM39,19H40V20H39zM41,19H42V20H41zM43,19H44V20H43zM6,20H7V21H6zM8,20H9V21H8zM9,20H10V21H9zM10,20H11V21H10zM12,20H13V21H12zM14,20H15V21H14zM15,20H16V21H15zM16,20H17V21H16zM17,20H18V21H17zM19,20H20V21H19zM23,20H24V21H23zM26,20H27V21H26zM28,20H29V21H28zM32,20H33V21H32zM34,20H35V21H34zM35,20H36V21H35zM36,20H37V21H36zM40,20H41V21H40zM41,20H42V21H41zM44,20H45V21H44zM4,21H5V22H4zM8,21H9V22H8zM12,21H13V22H12zM15,21H16V22H15zM17,21H18V22H17zM18,21H19V22H18zM20,21H21V22H20zM22,21H23V22H22zM23,21H24V22H23zM24,21H25V22H24zM29,21H30V22H29zM30,21H31V22H30zM31,21H32V22H31zM33,21H34V22H33zM36,21H37V22H36zM37,21H38V22H37zM39,21H40V22H39zM41,21H42V22H41zM42,21H43V22H42zM5,22H6V23H5zM7,22H8V23H7zM8,22H9V23H8zM9,22H10V23H9zM10,22H11V23H10zM12,22H13V23H12zM14,22H15V23H14zM15,22H16V23H15zM17,22H18V23H17zM20,22H21V23H20zM22,22H23V23H22zM23,22H24V23H23zM29,22H30V23H29zM30,22H31V23H30zM31,22H32V23H31zM32,22H33V23H32zM33,22H34V23H33zM37,22H38V23H37zM40,22H41V23H40zM41,22H42V23H41zM43,22H44V23H43zM4,23H5V24H4zM7,23H8V24H7zM9,23H10V24H9zM18,23H19V24H18zM19,23H20V24H19zM24,23H25V24H24zM27,23H28V24H27zM28,23H29V24H28zM29,23H30V24H29zM31,23H32V24H31zM35,23H36V24H35zM39,23H40V24H39zM41,23H42V24H41zM42,23H43V24H42zM43,23H44V24H43zM5,24H6V25H5zM6,24H7V25H6zM8,24H9V25H8zM9,24H10V25H9zM10,24H11V25H10zM11,24H12V25H11zM14,24H15V25H14zM18,24H19V25H18zM19,24H20V25H19zM21,24H22V25H21zM23,24H24V25H23zM24,24H25V25H24zM25,24H26V25H25zM26,24H27V25H26zM28,24H29V25H28zM29,24H30V25H29zM32,24H33V25H32zM34,24H35V25H34zM35,24H36V25H35zM38,24H39V25H38zM6,25H7V26H6zM8,25H9V26H8zM9,25H10V26H9zM12,25H13V26H12zM17,25H18V26H17zM20,25H21V26H20zM25,25H26V26H25zM29,25H30V26H29zM30,25H31V26H30zM32,25H33V26H32zM34,25H35V26H34zM36,25H37V26H36zM37,25H38V26H37zM38,25H39V26H38zM39,25H40V26H39zM41,25H42V26H41zM42,25H43V26H42zM43,25H44V26H43zM44,25H45V26H44zM4,26H5V27H4zM7,26H8V27H7zM9,26H10V27H9zM10,26H11V27H10zM12,26H13V27H12zM14,26H15V27H14zM17,26H18V27H17zM20,26H21V27H20zM26,26H27V27H26zM27,26H28V27H27zM28,26H29V27H28zM36,26H37V27H36zM38,26H39V27H38zM39,26H40V27H39zM40,26H41V27H40zM43,26H44V27H43zM4,27H5V28H4zM5,27H6V28H5zM8,27H9V28H8zM12,27H13V28H12zM13,27H14V28H13zM15,27H16V28H15zM17,27H18V28H17zM21,27H22V28H21zM22,27H23V28H22zM26,27H27V28H26zM29,27H30V28H29zM30,27H31V28H30zM31,27H32V28H31zM34,27H35V28H34zM35,27H36V28H35zM38,27H39V28H38zM39,27H40V28H39zM40,27H41V28H40zM42,27H43V28H42zM43,27H44V28H43zM44,27H45V28H44zM6,28H7V29H6zM8,28H9V29H8zM10,28H11V29H10zM11,28H12V29H11zM12,28H13V29H12zM18,28H19V29H18zM19,28H20V29H19zM20,28H21V29H20zM21,28H22V29H21zM22,28H23V29H22zM26,28H27V29H26zM28,28H29V29H28zM31,28H32V29H31zM33,28H34V29H33zM35,28H36V29H35zM40,28H41V29H40zM44,28H45V29H44zM5,29H6V30H5zM6,29H7V30H6zM9,29H10V30H9zM11,29H12V30H11zM12,29H13V30H12zM13,29H14V30H13zM14,29H15V30H14zM17,29H18V30H17zM18,29H19V30H18zM22,29H23V30H22zM23,29H24V30H23zM24,29H25V30H24zM26,29H27V30H26zM29,29H30V30H29zM31,29H32V30H31zM32,29H33V30H32zM35,29H36V30H35zM36,29H37V30H36zM41,29H42V30H41zM42,29H43V30H42zM44,29H45V30H44zM4,30H5V31H4zM5,30H6V31H5zM7,30H8V31H7zM8,30H9V31H8zM10,30H11V31H10zM15,30H16V31H15zM16,30H17V31H16zM17,30H18V31H17zM18,30H19V31H18zM21,30H22V31H21zM22,30H23V31H22zM24,30H25V31H24zM25,30H26V31H25zM26,30H27V31H26zM27,30H28V31H27zM32,30H33V31H32zM34,30H35V31H34zM35,30H36V31H35zM36,30H37V31H36zM37,30H38V31H37zM40,30H41V31H40zM41,30H42V31H41zM43,30H44V31H43zM44,30H45V31H44zM4,31H5V32H4zM5,31H6V32H5zM6,31H7V32H6zM9,31H10V32H9zM11,31H12V32H11zM12,31H13V32H12zM15,31H16V32H15zM16,31H17V32H16zM17,31H18V32H17zM18,31H19V32H18zM23,31H24V32H23zM24,31H25V32H24zM26,31H27V32H26zM27,31H28V32H27zM28,31H29V32H28zM32,31H33V32H32zM35,31H36V32H35zM36,31H37V32H36zM37,31H38V32H37zM38,31H39V32H38zM40,31H41V32H40zM41,31H42V32H41zM4,32H5V33H4zM6,32H7V33H6zM7,32H8V33H7zM10,32H11V33H10zM13,32H14V33H13zM14,32H15V33H14zM15,32H16V33H15zM19,32H20V33H19zM23,32H24V33H23zM25,32H26V33H25zM27,32H28V33H27zM28,32H29V33H28zM30,32H31V33H30zM31,32H32V33H31zM33,32H34V33H33zM34,32H35V33H34zM35,32H36V33H35zM37,32H38V33H37zM38,32H39V33H38zM39,32H40V33H39zM40,32H41V33H40zM41,32H42V33H41zM8,33H9V34H8zM9,33H10V34H9zM12,33H13V34H12zM17,33H18V34H17zM18,33H19V34H18zM19,33H20V34H19zM20,33H21V34H20zM22,33H23V34H22zM25,33H26V34H25zM26,33H27V34H26zM27,33H28V34H27zM28,33H29V34H28zM30,33H31V34H30zM33,33H34V34H33zM35,33H36V34H35zM38,33H39V34H38zM44,33H45V34H44zM4,34H5V35H4zM6,34H7V35H6zM7,34H8V35H7zM8,34H9V35H8zM10,34H11V35H10zM11,34H12V35H11zM12,34H13V35H12zM13,34H14V35H13zM14,34H15V35H14zM17,34H18V35H17zM20,34H21V35H20zM23,34H24V35H23zM24,34H25V35H24zM25,34H26V35H25zM28,34H29V35H28zM33,34H34V35H33zM34,34H35V35H34zM36,34H37V35H36zM37,34H38V35H37zM38,34H39V35H38zM39,34H40V35H39zM41,34H42V35H41zM7,35H8V36H7zM11,35H12V36H11zM13,35H14V36H13zM14,35H15V36H14zM15,35H16V36H15zM17,35H18V36H17zM19,35H20V36H19zM21,35H22V36H21zM24,35H25V36H24zM26,35H27V36H26zM27,35H28V36H27zM29,35H30V36H29zM31,35H32V36H31zM32,35H33V36H32zM33,35H34V36H33zM36,35H37V36H36zM38,35H39V36H38zM39,35H40V36H39zM40,35H41V36H40zM41,35H42V36H41zM42,35H43V36H42zM43,35H44V36H43zM5,36H6V37H5zM8,36H9V37H8zM9,36H10V37H9zM10,36H11V37H10zM13,36H14V37H13zM16,36H17V37H16zM17,36H18V37H17zM18,36H19V37H18zM27,36H28V37H27zM28,36H29V37H28zM30,36H31V37H30zM31,36H32V37H31zM33,36H34V37H33zM34,36H35V37H34zM35,36H36V37H35zM36,36H37V37H36zM37,36H38V37H37zM38,36H39V37H38zM39,36H40V37H39zM40,36H41V37H40zM41,36H42V37H41zM42,36H43V37H42zM12,37H13V38H12zM14,37H15V38H14zM18,37H19V38H18zM20,37H21V38H20zM22,37H23V38H22zM29,37H30V38H29zM30,37H31V38H30zM32,37H33V38H32zM35,37H36V38H35zM36,37H37V38H36zM40,37H41V38H40zM42,37H43V38H42zM43,37H44V38H43zM44,37H45V38H44zM4,38H5V39H4zM5,38H6V39H5zM6,38H7V39H6zM7,38H8V39H7zM8,38H9V39H8zM9,38H10V39H9zM10,38H11V39H10zM12,38H13V39H12zM14,38H15V39H14zM16,38H17V39H16zM18,38H19V39H18zM21,38H22V39H21zM26,38H27V39H26zM27,38H28V39H27zM28,38H29V39H28zM29,38H30V39H29zM32,38H33V39H32zM33,38H34V39H33zM36,38H37V39H36zM38,38H39V39H38zM40,38H41V39H40zM42,38H43V39H42zM43,38H44V39H43zM4,39H5V40H4zM10,39H11V40H10zM14,39H15V40H14zM15,39H16V40H15zM16,39H17V40H16zM17,39H18V40H17zM18,39H19V40H18zM19,39H20V40H19zM21,39H22V40H21zM22,39H23V40H22zM25,39H26V40H25zM26,39H27V40H26zM27,39H28V40H27zM28,39H29V40H28zM31,39H32V40H31zM32,39H33V40H32zM34,39H35V40H34zM36,39H37V40H36zM40,39H41V40H40zM43,39H44V40H43zM4,40H5V41H4zM6,40H7V41H6zM7,40H8V41H7zM8,40H9V41H8zM10,40H11V41H10zM14,40H15V41H14zM15,40H16V41H15zM21,40H22V41H21zM22,40H23V41H22zM24,40H25V41H24zM26,40H27V41H26zM27,40H28V41H27zM29,40H30V41H29zM31,40H32V41H31zM32,40H33V41H32zM34,40H35V41H34zM36,40H37V41H36zM37,40H38V41H37zM38,40H39V41H38zM39,40H40V41H39zM40,40H41V41H40zM41,40H42V41H41zM42,40H43V41H42zM43,40H44V41H43zM44,40H45V41H44zM4,41H5V42H4zM6,41H7V42H6zM7,41H8V42H7zM8,41H9V42H8zM10,41H11V42H10zM12,41H13V42H12zM13,41H14V42H13zM14,41H15V42H14zM15,41H16V42H15zM16,41H17V42H16zM17,41H18V42H17zM22,41H23V42H22zM23,41H24V42H23zM25,41H26V42H25zM26,41H27V42H26zM27,41H28V42H27zM28,41H29V42H28zM29,41H30V42H29zM30,41H31V42H30zM31,41H32V42H31zM32,41H33V42H32zM33,41H34V42H33zM34,41H35V42H34zM35,41H36V42H35zM36,41H37V42H36zM40,41H41V42H40zM42,41H43V42H42zM44,41H45V42H44zM4,42H5V43H4zM6,42H7V43H6zM7,42H8V43H7zM8,42H9V43H8zM10,42H11V43H10zM12,42H13V43H12zM13,42H14V43H13zM20,42H21V43H20zM23,42H24V43H23zM27,42H28V43H27zM32,42H33V43H32zM35,42H36V43H35zM36,42H37V43H36zM39,42H40V43H39zM44,42H45V43H44zM4,43H5V44H4zM10,43H11V44H10zM14,43H15V44H14zM15,43H16V44H15zM17,43H18V44H17zM18,43H19V44H18zM19,43H20V44H19zM21,43H22V44H21zM22,43H23V44H22zM23,43H24V44H23zM24,43H25V44H24zM25,43H26V44H25zM27,43H28V44H27zM31,43H32V44H31zM32,43H33V44H32zM36,43H37V44H36zM38,43H39V44H38zM40,43H41V44H40zM43,43H44V44H43zM4,44H5V45H4zM5,44H6V45H5zM6,44H7V45H6zM7,44H8V45H7zM8,44H9V45H8zM9,44H10V45H9zM10,44H11V45H10zM13,44H14V45H13zM14,44H15V45H14zM15,44H16V45H15zM18,44H19V45H18zM20,44H21V45H20zM21,44H22V45H21zM27,44H28V45H27zM28,44H29V45H28zM29,44H30V45H29zM31,44H32V45H31zM34,44H35V45H34zM35,44H36V45H35zM36,44H37V45H36zM37,44H38V45H37zM38,44H39V45H38zM41,44H42V45H41zM42,44H43V45H42zM43,44H44V45H43z" id="qr-path" fill="#000000" fill-opacity="1" fill-rule="nonzero" stroke="none"/></svg>